{"title":"Nailbiter 2013 DVDRip XviD juggs","uid":8518753,"size":741296033,"categoryP":"video","categoryS":"movies","magnet":"?xt=urn:btih:233083cb75b49ba9c7aff5d569be33f73ac11c8c&amp;dn=Nailbiter+2013+DVDRip+XviD+juggs&amp;tr=udp%3A%2F%2Ftracker.openbittorrent.com%3A80&amp;tr=udp%3A%2F%2Fopen.demonii.com%3A1337&amp;tr=udp%3A%2F%2Ftracker.coppersurfer.tk%3A6969&amp;tr=udp%3A%2F%2Fexodus.desync.com%3A6969","seeders":1,"leechers":0,"uploader":"juggs99","files":3,"time":1369845781,"description":" &lt;a href=&quot;http://www.imdb.com/title/tt2122424/&quot; rel=&quot;nofollow&quot; target=&quot;_NEW&quot;&gt;http://www.imdb.com/title/tt2122424/&lt;/a&gt;\n\nFormat                                   : AVI\nFormat/Info                              : Audio Video Interleave\nFile size                                : 697 MiB\nDuration                                 : 1h 21mn\nOverall bit rate                         : 1 195 Kbps\nWriting library                          : VirtualDub build 32842/release\n\nVideo\nID                                       : 0\nFormat                                   : MPEG-4 Visual\nFormat profile                           : Advanced Simple@L5\nFormat settings, BVOP                    : 2\nFormat settings, QPel                    : No\nFormat settings, GMC                     : No warppoints\nFormat settings, Matrix                  : Default (H.263)\nMuxing mode                              : Packed bitstream\nCodec ID                                 : XVID\nCodec ID/Hint                            : XviD\nDuration                                 : 1h 21mn\nBit rate                                 : 1 057 Kbps\nWidth                                    : 640 pixels\nHeight                                   : 272 pixels\nDisplay aspect ratio                     : 2.35:1\nFrame rate                               : 23.976 fps\nColor space                              : YUV\nChroma subsampling                       : 4:2:0\nBit depth                                : 8 bits\nScan type                                : Progressive\nCompression mode                         : Lossy\nBits/(Pixel*Frame)                       : 0.253\nStream size                              : 617 MiB (88%)\nWriting library                          : XviD 64\n\nAudio\nID                                       : 1\nFormat                                   : MPEG Audio\nFormat version                           : Version 1\nFormat profile                           : Layer 3\nCodec ID                                 : 55\nCodec ID/Hint                            : MP3\nDuration                                 : 1h 21mn\nBit rate mode                            : Constant\nBit rate                                 : 128 Kbps\nChannel(s)                               : 2 channels\nSampling rate                            : 44.1 KHz\nCompression mode                         : Lossy\nStream size                              : 74.7 MiB (11%)\nAlignment                                : Split accross interleaves\nInterleave, duration                     : 42 ms (1.00 video frame)\nInterleave, preload duration             : 500 ms\nWriting library                          : LAME3.99r\nEncoding settings                        : -m s -V 4 -q 3 -lowpass 17 -b 128\n\nPlot\nThe Maguire family is forced to take sudden refuge in a seemingly abandoned storm cellar from a deadly tornado.\n &lt;a href=&quot;\nhttp://img842.imageshack.us/img842/5783/daleg.png&quot; rel=&quot;nofollow&quot; target=&quot;_NEW&quot;&gt;\nhttp://img842.imageshack.us/img842/5783/daleg.png&lt;/a&gt; &lt;a href=&quot;\nhttp://img837.imageshack.us/img837/1937/dale1.png&quot; rel=&quot;nofollow&quot; target=&quot;_NEW&quot;&gt;\nhttp://img837.imageshack.us/img837/1937/dale1.png&lt;/a&gt; &lt;a href=&quot;\nhttp://img12.imageshack.us/img12/2118/dale2.png&quot; rel=&quot;nofollow&quot; target=&quot;_NEW&quot;&gt;\nhttp://img12.imageshack.us/img12/2118/dale2.png&lt;/a&gt;","torrent":{"xt":"urn:btih:233083cb75b49ba9c7aff5d569be33f73ac11c8c","amp;dn":"Nailbiter+2013+DVDRip+XviD+juggs","amp;tr":["udp%3A%2F%2Ftracker.openbittorrent.com%3A80","udp%3A%2F%2Fopen.demonii.com%3A1337","udp%3A%2F%2Ftracker.coppersurfer.tk%3A6969","udp%3A%2F%2Fexodus.desync.com%3A6969"],"infoHash":"233083cb75b49ba9c7aff5d569be33f73ac11c8c","infoHashBuffer":{"type":"Buffer","data":[35,48,131,203,117,180,155,169,199,175,245,213,105,190,51,247,58,193,28,140]},"announce":[],"urlList":[]}}